# xmcd
#
# Track frame offsets:
#	225
#	11477
#	23027
#	36167
#	44995
#	53735
#	65112
#	77775
#	89970
#	98077
#
# Disc length: 1436 seconds
#
# Revision: 1
# Processed by: cddbd v1.4PL0 Copyright (c) Steve Scherf et al.
# Submitted via: audiograbber 1.81.03
#
DISCID=8905990a
DTITLE=Johnny Cash - The Country Legend
DYEAR=1900
DGENRE=Country
TTITLE0=I Heard That Lonesome Whistle
TTITLE1=Cry Cry Cry
TTITLE2=Folsome Prison Blues
TTITLE3=Country Boy
TTITLE4=Wreck Of The Old 97
TTITLE5=I Love You Because
TTITLE6=I Walk The Line
TTITLE7=Doing My Time
TTITLE8=If The Good Lord Willing
TTITLE9=Ballad Of A Teenage Queen
EXTD=CD Sounds CDFX-6757
EXTT0=
EXTT1=
EXTT2=
EXTT3=
EXTT4=
EXTT5=
EXTT6=
EXTT7=
EXTT8=
EXTT9=
PLAYORDER=
